<svg xmlns="http://www.w3.org/2000/svg" xmlns:xlink="http://www.w3.org/1999/xlink" width="1080" zoomAndPan="magnify" viewBox="0 0 810 809.999993" height="1080" preserveAspectRatio="xMidYMid meet" version="1.0"><defs><g/><clipPath id="id1"><path d="M 207.746094 202.496094 L 602.246094 202.496094 L 602.246094 596.996094 L 207.746094 596.996094 Z M 207.746094 202.496094 " clip-rule="nonzero"/></clipPath><clipPath id="id2"><path d="M 291 486 L 519 486 L 519 594 L 291 594 Z M 291 486 " clip-rule="nonzero"/></clipPath><clipPath id="id3"><path d="M 599.21875 399.808594 C 599.21875 507.042969 512.292969 593.96875 405.058594 593.96875 C 297.820312 593.96875 210.898438 507.042969 210.898438 399.808594 C 210.894531 292.570312 297.820312 205.648438 405.058594 205.648438 C 512.292969 205.644531 599.21875 292.570312 599.21875 399.808594 Z M 599.21875 399.808594 " clip-rule="nonzero"/></clipPath><clipPath id="id4"><path d="M 288.105469 483.132812 L 521.761719 483.132812 L 521.761719 594 L 288.105469 594 Z M 288.105469 483.132812 " clip-rule="nonzero"/></clipPath><clipPath id="id5"><path d="M 599.21875 399.808594 C 599.21875 507.042969 512.292969 593.96875 405.058594 593.96875 C 297.820312 593.96875 210.898438 507.042969 210.898438 399.808594 C 210.894531 292.570312 297.820312 205.648438 405.058594 205.648438 C 512.292969 205.644531 599.21875 292.570312 599.21875 399.808594 Z M 599.21875 399.808594 " clip-rule="nonzero"/></clipPath><clipPath id="id6"><path d="M 342.5 486 L 467.367188 486 L 467.367188 559.785156 L 342.5 559.785156 Z M 342.5 486 " clip-rule="nonzero"/></clipPath><clipPath id="id7"><path d="M 599.21875 399.808594 C 599.21875 507.042969 512.292969 593.96875 405.058594 593.96875 C 297.820312 593.96875 210.898438 507.042969 210.898438 399.808594 C 210.894531 292.570312 297.820312 205.648438 405.058594 205.648438 C 512.292969 205.644531 599.21875 292.570312 599.21875 399.808594 Z M 599.21875 399.808594 " clip-rule="nonzero"/></clipPath><clipPath id="id8"><path d="M 339 483.132812 L 471 483.132812 L 471 562.257812 L 339 562.257812 Z M 339 483.132812 " clip-rule="nonzero"/></clipPath><clipPath id="id9"><path d="M 599.21875 399.808594 C 599.21875 507.042969 512.292969 593.96875 405.058594 593.96875 C 297.820312 593.96875 210.898438 507.042969 210.898438 399.808594 C 210.894531 292.570312 297.820312 205.648438 405.058594 205.648438 C 512.292969 205.644531 599.21875 292.570312 599.21875 399.808594 Z M 599.21875 399.808594 " clip-rule="nonzero"/></clipPath><clipPath id="id10"><path d="M 377.117188 430 L 432.75 430 L 432.75 535 L 377.117188 535 Z M 377.117188 430 " clip-rule="nonzero"/></clipPath><clipPath id="id11"><path d="M 599.21875 399.808594 C 599.21875 507.042969 512.292969 593.96875 405.058594 593.96875 C 297.820312 593.96875 210.898438 507.042969 210.898438 399.808594 C 210.894531 292.570312 297.820312 205.648438 405.058594 205.648438 C 512.292969 205.644531 599.21875 292.570312 599.21875 399.808594 Z M 599.21875 399.808594 " clip-rule="nonzero"/></clipPath><clipPath id="id12"><path d="M 374 427 L 436 427 L 436 538 L 374 538 Z M 374 427 " clip-rule="nonzero"/></clipPath><clipPath id="id13"><path d="M 599.21875 399.808594 C 599.21875 507.042969 512.292969 593.96875 405.058594 593.96875 C 297.820312 593.96875 210.898438 507.042969 210.898438 399.808594 C 210.894531 292.570312 297.820312 205.648438 405.058594 205.648438 C 512.292969 205.644531 599.21875 292.570312 599.21875 399.808594 Z M 599.21875 399.808594 " clip-rule="nonzero"/></clipPath><clipPath id="id14"><path d="M 469 384.230469 L 499 384.230469 L 499 434.917969 L 469 434.917969 Z M 469 384.230469 " clip-rule="nonzero"/></clipPath><clipPath id="id15"><path d="M 599.21875 399.808594 C 599.21875 507.042969 512.292969 593.96875 405.058594 593.96875 C 297.820312 593.96875 210.898438 507.042969 210.898438 399.808594 C 210.894531 292.570312 297.820312 205.648438 405.058594 205.648438 C 512.292969 205.644531 599.21875 292.570312 599.21875 399.808594 Z M 599.21875 399.808594 " clip-rule="nonzero"/></clipPath><clipPath id="id16"><path d="M 466.128906 381.757812 L 501.984375 381.757812 L 501.984375 437.390625 L 466.128906 437.390625 Z M 466.128906 381.757812 " clip-rule="nonzero"/></clipPath><clipPath id="id17"><path d="M 599.21875 399.808594 C 599.21875 507.042969 512.292969 593.96875 405.058594 593.96875 C 297.820312 593.96875 210.898438 507.042969 210.898438 399.808594 C 210.894531 292.570312 297.820312 205.648438 405.058594 205.648438 C 512.292969 205.644531 599.21875 292.570312 599.21875 399.808594 Z M 599.21875 399.808594 " clip-rule="nonzero"/></clipPath><clipPath id="id18"><path d="M 314.066406 384.230469 L 344.972656 384.230469 L 344.972656 434.917969 L 314.066406 434.917969 Z M 314.066406 384.230469 " clip-rule="nonzero"/></clipPath><clipPath id="id19"><path d="M 599.21875 399.808594 C 599.21875 507.042969 512.292969 593.96875 405.058594 593.96875 C 297.820312 593.96875 210.898438 507.042969 210.898438 399.808594 C 210.894531 292.570312 297.820312 205.648438 405.058594 205.648438 C 512.292969 205.644531 599.21875 292.570312 599.21875 399.808594 Z M 599.21875 399.808594 " clip-rule="nonzero"/></clipPath><clipPath id="id20"><path d="M 311.59375 381.757812 L 347.445312 381.757812 L 347.445312 437.390625 L 311.59375 437.390625 Z M 311.59375 381.757812 " clip-rule="nonzero"/></clipPath><clipPath id="id21"><path d="M 599.21875 399.808594 C 599.21875 507.042969 512.292969 593.96875 405.058594 593.96875 C 297.820312 593.96875 210.898438 507.042969 210.898438 399.808594 C 210.894531 292.570312 297.820312 205.648438 405.058594 205.648438 C 512.292969 205.644531 599.21875 292.570312 599.21875 399.808594 Z M 599.21875 399.808594 " clip-rule="nonzero"/></clipPath><clipPath id="id22"><path d="M 328 299 L 485.910156 299 L 485.910156 483 L 328 483 Z M 328 299 " clip-rule="nonzero"/></clipPath><clipPath id="id23"><path d="M 599.21875 399.808594 C 599.21875 507.042969 512.292969 593.96875 405.058594 593.96875 C 297.820312 593.96875 210.898438 507.042969 210.898438 399.808594 C 210.894531 292.570312 297.820312 205.648438 405.058594 205.648438 C 512.292969 205.644531 599.21875 292.570312 599.21875 399.808594 Z M 599.21875 399.808594 " clip-rule="nonzero"/></clipPath><clipPath id="id24"><path d="M 325.191406 296.453125 L 488.382812 296.453125 L 488.382812 485.605469 L 325.191406 485.605469 Z M 325.191406 296.453125 " clip-rule="nonzero"/></clipPath><clipPath id="id25"><path d="M 599.21875 399.808594 C 599.21875 507.042969 512.292969 593.96875 405.058594 593.96875 C 297.820312 593.96875 210.898438 507.042969 210.898438 399.808594 C 210.894531 292.570312 297.820312 205.648438 405.058594 205.648438 C 512.292969 205.644531 599.21875 292.570312 599.21875 399.808594 Z M 599.21875 399.808594 " clip-rule="nonzero"/></clipPath><clipPath id="id26"><path d="M 405 294 L 492 294 L 492 370.632812 L 405 370.632812 Z M 405 294 " clip-rule="nonzero"/></clipPath><clipPath id="id27"><path d="M 599.21875 399.808594 C 599.21875 507.042969 512.292969 593.96875 405.058594 593.96875 C 297.820312 593.96875 210.898438 507.042969 210.898438 399.808594 C 210.894531 292.570312 297.820312 205.648438 405.058594 205.648438 C 512.292969 205.644531 599.21875 292.570312 599.21875 399.808594 Z M 599.21875 399.808594 " clip-rule="nonzero"/></clipPath><clipPath id="id28"><path d="M 402 291 L 495 291 L 495 374 L 402 374 Z M 402 291 " clip-rule="nonzero"/></clipPath><clipPath id="id29"><path d="M 599.21875 399.808594 C 599.21875 507.042969 512.292969 593.96875 405.058594 593.96875 C 297.820312 593.96875 210.898438 507.042969 210.898438 399.808594 C 210.894531 292.570312 297.820312 205.648438 405.058594 205.648438 C 512.292969 205.644531 599.21875 292.570312 599.21875 399.808594 Z M 599.21875 399.808594 " clip-rule="nonzero"/></clipPath><clipPath id="id30"><path d="M 327 280.382812 L 416.679688 280.382812 L 416.679688 369 L 327 369 Z M 327 280.382812 " clip-rule="nonzero"/></clipPath><clipPath id="id31"><path d="M 599.21875 399.808594 C 599.21875 507.042969 512.292969 593.96875 405.058594 593.96875 C 297.820312 593.96875 210.898438 507.042969 210.898438 399.808594 C 210.894531 292.570312 297.820312 205.648438 405.058594 205.648438 C 512.292969 205.644531 599.21875 292.570312 599.21875 399.808594 Z M 599.21875 399.808594 " clip-rule="nonzero"/></clipPath><clipPath id="id32"><path d="M 324 277 L 420 277 L 420 373 L 324 373 Z M 324 277 " clip-rule="nonzero"/></clipPath><clipPath id="id33"><path d="M 599.21875 399.808594 C 599.21875 507.042969 512.292969 593.96875 405.058594 593.96875 C 297.820312 593.96875 210.898438 507.042969 210.898438 399.808594 C 210.894531 292.570312 297.820312 205.648438 405.058594 205.648438 C 512.292969 205.644531 599.21875 292.570312 599.21875 399.808594 Z M 599.21875 399.808594 " clip-rule="nonzero"/></clipPath><clipPath id="id34"><path d="M 321 263.074219 L 493 263.074219 L 493 385.464844 L 321 385.464844 Z M 321 263.074219 " clip-rule="nonzero"/></clipPath><clipPath id="id35"><path d="M 599.21875 399.808594 C 599.21875 507.042969 512.292969 593.96875 405.058594 593.96875 C 297.820312 593.96875 210.898438 507.042969 210.898438 399.808594 C 210.894531 292.570312 297.820312 205.648438 405.058594 205.648438 C 512.292969 205.644531 599.21875 292.570312 599.21875 399.808594 Z M 599.21875 399.808594 " clip-rule="nonzero"/></clipPath><clipPath id="id36"><path d="M 318 260 L 497 260 L 497 389 L 318 389 Z M 318 260 " clip-rule="nonzero"/></clipPath><clipPath id="id37"><path d="M 599.21875 399.808594 C 599.21875 507.042969 512.292969 593.96875 405.058594 593.96875 C 297.820312 593.96875 210.898438 507.042969 210.898438 399.808594 C 210.894531 292.570312 297.820312 205.648438 405.058594 205.648438 C 512.292969 205.644531 599.21875 292.570312 599.21875 399.808594 Z M 599.21875 399.808594 " clip-rule="nonzero"/></clipPath><clipPath id="id38"><path d="M 458.710938 379 L 492 379 L 492 422 L 458.710938 422 Z M 458.710938 379 " clip-rule="nonzero"/></clipPath><clipPath id="id39"><path d="M 599.21875 399.808594 C 599.21875 507.042969 512.292969 593.96875 405.058594 593.96875 C 297.820312 593.96875 210.898438 507.042969 210.898438 399.808594 C 210.894531 292.570312 297.820312 205.648438 405.058594 205.648438 C 512.292969 205.644531 599.21875 292.570312 599.21875 399.808594 Z M 599.21875 399.808594 " clip-rule="nonzero"/></clipPath><clipPath id="id40"><path d="M 455.003906 376 L 495 376 L 495 425 L 455.003906 425 Z M 455.003906 376 " clip-rule="nonzero"/></clipPath><clipPath id="id41"><path d="M 599.21875 399.808594 C 599.21875 507.042969 512.292969 593.96875 405.058594 593.96875 C 297.820312 593.96875 210.898438 507.042969 210.898438 399.808594 C 210.894531 292.570312 297.820312 205.648438 405.058594 205.648438 C 512.292969 205.644531 599.21875 292.570312 599.21875 399.808594 Z M 599.21875 399.808594 " clip-rule="nonzero"/></clipPath><clipPath id="id42"><path d="M 322 375.578125 L 356 375.578125 L 356 422.554688 L 322 422.554688 Z M 322 375.578125 " clip-rule="nonzero"/></clipPath><clipPath id="id43"><path d="M 599.21875 399.808594 C 599.21875 507.042969 512.292969 593.96875 405.058594 593.96875 C 297.820312 593.96875 210.898438 507.042969 210.898438 399.808594 C 210.894531 292.570312 297.820312 205.648438 405.058594 205.648438 C 512.292969 205.644531 599.21875 292.570312 599.21875 399.808594 Z M 599.21875 399.808594 " clip-rule="nonzero"/></clipPath><clipPath id="id44"><path d="M 319.011719 372 L 359 372 L 359 426 L 319.011719 426 Z M 319.011719 372 " clip-rule="nonzero"/></clipPath><clipPath id="id45"><path d="M 599.21875 399.808594 C 599.21875 507.042969 512.292969 593.96875 405.058594 593.96875 C 297.820312 593.96875 210.898438 507.042969 210.898438 399.808594 C 210.894531 292.570312 297.820312 205.648438 405.058594 205.648438 C 512.292969 205.644531 599.21875 292.570312 599.21875 399.808594 Z M 599.21875 399.808594 " clip-rule="nonzero"/></clipPath><clipPath id="id46"><path d="M 349 410.191406 L 464.894531 410.191406 L 464.894531 485 L 349 485 Z M 349 410.191406 " clip-rule="nonzero"/></clipPath><clipPath id="id47"><path d="M 599.21875 399.808594 C 599.21875 507.042969 512.292969 593.96875 405.058594 593.96875 C 297.820312 593.96875 210.898438 507.042969 210.898438 399.808594 C 210.894531 292.570312 297.820312 205.648438 405.058594 205.648438 C 512.292969 205.644531 599.21875 292.570312 599.21875 399.808594 Z M 599.21875 399.808594 " clip-rule="nonzero"/></clipPath><clipPath id="id48"><path d="M 346.210938 407 L 468 407 L 468 488 L 346.210938 488 Z M 346.210938 407 " clip-rule="nonzero"/></clipPath><clipPath id="id49"><path d="M 599.21875 399.808594 C 599.21875 507.042969 512.292969 593.96875 405.058594 593.96875 C 297.820312 593.96875 210.898438 507.042969 210.898438 399.808594 C 210.894531 292.570312 297.820312 205.648438 405.058594 205.648438 C 512.292969 205.644531 599.21875 292.570312 599.21875 399.808594 Z M 599.21875 399.808594 " clip-rule="nonzero"/></clipPath><clipPath id="id50"><path d="M 419.152344 370 L 472 370 L 472 384 L 419.152344 384 Z M 419.152344 370 " clip-rule="nonzero"/></clipPath><clipPath id="id51"><path d="M 599.21875 399.808594 C 599.21875 507.042969 512.292969 593.96875 405.058594 593.96875 C 297.820312 593.96875 210.898438 507.042969 210.898438 399.808594 C 210.894531 292.570312 297.820312 205.648438 405.058594 205.648438 C 512.292969 205.644531 599.21875 292.570312 599.21875 399.808594 Z M 599.21875 399.808594 " clip-rule="nonzero"/></clipPath><clipPath id="id52"><path d="M 428 387 L 462 387 L 462 397.828125 L 428 397.828125 Z M 428 387 " clip-rule="nonzero"/></clipPath><clipPath id="id53"><path d="M 599.21875 399.808594 C 599.21875 507.042969 512.292969 593.96875 405.058594 593.96875 C 297.820312 593.96875 210.898438 507.042969 210.898438 399.808594 C 210.894531 292.570312 297.820312 205.648438 405.058594 205.648438 C 512.292969 205.644531 599.21875 292.570312 599.21875 399.808594 Z M 599.21875 399.808594 " clip-rule="nonzero"/></clipPath><clipPath id="id54"><path d="M 348 387 L 382 387 L 382 397.828125 L 348 397.828125 Z M 348 387 " clip-rule="nonzero"/></clipPath><clipPath id="id55"><path d="M 599.21875 399.808594 C 599.21875 507.042969 512.292969 593.96875 405.058594 593.96875 C 297.820312 593.96875 210.898438 507.042969 210.898438 399.808594 C 210.894531 292.570312 297.820312 205.648438 405.058594 205.648438 C 512.292969 205.644531 599.21875 292.570312 599.21875 399.808594 Z M 599.21875 399.808594 " clip-rule="nonzero"/></clipPath><clipPath id="id56"><path d="M 338 369.394531 L 390.714844 369.394531 L 390.714844 384 L 338 384 Z M 338 369.394531 " clip-rule="nonzero"/></clipPath><clipPath id="id57"><path d="M 599.21875 399.808594 C 599.21875 507.042969 512.292969 593.96875 405.058594 593.96875 C 297.820312 593.96875 210.898438 507.042969 210.898438 399.808594 C 210.894531 292.570312 297.820312 205.648438 405.058594 205.648438 C 512.292969 205.644531 599.21875 292.570312 599.21875 399.808594 Z M 599.21875 399.808594 " clip-rule="nonzero"/></clipPath><clipPath id="id58"><path d="M 434 391 L 449 391 L 449 412.664062 L 434 412.664062 Z M 434 391 " clip-rule="nonzero"/></clipPath><clipPath id="id59"><path d="M 599.21875 399.808594 C 599.21875 507.042969 512.292969 593.96875 405.058594 593.96875 C 297.820312 593.96875 210.898438 507.042969 210.898438 399.808594 C 210.894531 292.570312 297.820312 205.648438 405.058594 205.648438 C 512.292969 205.644531 599.21875 292.570312 599.21875 399.808594 Z M 599.21875 399.808594 " clip-rule="nonzero"/></clipPath><clipPath id="id60"><path d="M 361.046875 391 L 377 391 L 377 412.664062 L 361.046875 412.664062 Z M 361.046875 391 " clip-rule="nonzero"/></clipPath><clipPath id="id61"><path d="M 599.21875 399.808594 C 599.21875 507.042969 512.292969 593.96875 405.058594 593.96875 C 297.820312 593.96875 210.898438 507.042969 210.898438 399.808594 C 210.894531 292.570312 297.820312 205.648438 405.058594 205.648438 C 512.292969 205.644531 599.21875 292.570312 599.21875 399.808594 Z M 599.21875 399.808594 " clip-rule="nonzero"/></clipPath><clipPath id="id62"><path d="M 135.804688 229.5 L 279.804688 229.5 L 279.804688 373.5 L 135.804688 373.5 Z M 135.804688 229.5 " clip-rule="nonzero"/></clipPath></defs><rect x="-81" width="972" fill="#ffffff" y="-80.999999" height="971.999992" fill-opacity="1"/><rect x="-81" width="972" fill="#f8f8f8" y="-80.999999" height="971.999992" fill-opacity="1"/><rect x="-81" width="972" fill="#ffffff" y="-80.999999" height="971.999992" fill-opacity="1"/><rect x="-81" width="972" fill="#f8f8f8" y="-80.999999" height="971.999992" fill-opacity="1"/><path fill="#231f1f" d="M 717.746094 86.398438 C 720.960938 86.398438 723.601562 89.039062 723.601562 92.253906 L 723.601562 717.746094 C 723.601562 720.960938 720.960938 723.601562 717.746094 723.601562 L 92.253906 723.601562 C 89.039062 723.601562 86.398438 720.960938 86.398438 717.746094 L 86.398438 92.253906 C 86.398438 89.039062 89.039062 86.398438 92.253906 86.398438 L 717.746094 86.398438 M 717.746094 81 L 92.253906 81 C 86.054688 81 81 86.054688 81 92.253906 L 81 717.746094 C 81 723.945312 86.054688 729 92.253906 729 L 717.746094 729 C 723.945312 729 729 723.945312 729 717.746094 L 729 92.253906 C 729 86.054688 723.945312 81 717.746094 81 " fill-opacity="1" fill-rule="nonzero"/><path fill="#ffffff" d="M 210.894531 399.808594 C 210.894531 507.042969 297.820312 593.96875 405.054688 593.96875 C 512.289062 593.96875 599.214844 507.042969 599.214844 399.808594 C 599.214844 292.570312 512.289062 205.648438 405.054688 205.648438 C 297.816406 205.644531 210.894531 292.570312 210.894531 399.808594 " fill-opacity="1" fill-rule="nonzero"/><g clip-path="url(#id1)"><path fill="#231f1f" d="M 405.058594 208.734375 C 299.699219 208.734375 213.988281 294.449219 213.988281 399.804688 C 213.984375 505.160156 299.699219 590.871094 405.058594 590.871094 C 510.414062 590.871094 596.125 505.160156 596.125 399.804688 C 596.125 294.449219 510.414062 208.734375 405.058594 208.734375 Z M 405.058594 597.054688 C 296.289062 597.054688 207.808594 508.574219 207.808594 399.804688 C 207.804688 291.035156 296.289062 202.554688 405.058594 202.554688 C 513.828125 202.550781 602.308594 291.035156 602.308594 399.804688 C 602.308594 508.574219 513.828125 597.054688 405.058594 597.054688 " fill-opacity="1" fill-rule="nonzero"/></g><g clip-path="url(#id2)"><g clip-path="url(#id3)"><path fill="#231f1f" d="M 518.328125 594.511719 C 508.734375 601.667969 498.421875 607.949219 487.53125 613.203125 C 485.875 614.007812 484.203125 614.773438 482.535156 615.527344 C 458.875 626.136719 432.664062 632.03125 405.058594 632.03125 C 377.453125 632.03125 351.242188 626.136719 327.589844 615.527344 C 325.898438 614.773438 324.230469 614.007812 322.585938 613.203125 C 311.691406 607.9375 301.382812 601.667969 291.789062 594.511719 C 293.46875 556.964844 313.410156 524.179688 342.945312 504.816406 C 360.785156 493.109375 382.125 486.3125 405.058594 486.3125 C 408.554688 486.3125 412.019531 486.460938 415.417969 486.78125 C 434.417969 488.5 452.050781 494.890625 467.167969 504.816406 C 480.769531 513.730469 492.328125 525.488281 501.007812 539.25 C 511.191406 555.371094 517.410156 574.246094 518.328125 594.511719 " fill-opacity="1" fill-rule="nonzero"/></g></g><g clip-path="url(#id4)"><g clip-path="url(#id5)"><path fill="#231f1f" d="M 294.953125 593.003906 C 304.066406 599.667969 313.808594 605.527344 323.933594 610.421875 C 325.664062 611.261719 327.269531 612.003906 328.839844 612.695312 C 352.875 623.476562 378.503906 628.941406 405.058594 628.941406 C 431.601562 628.941406 457.242188 623.476562 481.261719 612.710938 C 482.957031 611.96875 484.589844 611.199219 486.171875 610.421875 C 496.308594 605.527344 506.050781 599.679688 515.160156 593.003906 C 514.050781 574.507812 508.273438 556.53125 498.398438 540.894531 C 490.003906 527.601562 478.628906 516.019531 465.476562 507.402344 C 450.441406 497.535156 433.035156 491.476562 415.144531 489.859375 C 411.84375 489.550781 408.445312 489.402344 405.058594 489.402344 C 383.484375 489.402344 362.589844 495.621094 344.640625 507.402344 C 315.511719 526.503906 297.03125 558.410156 294.953125 593.003906 Z M 405.058594 635.121094 C 377.625 635.121094 351.144531 629.472656 326.316406 618.347656 C 324.699219 617.628906 323.03125 616.851562 321.238281 615.984375 C 310.269531 610.679688 299.738281 604.289062 289.933594 596.984375 C 289.117188 596.367188 288.648438 595.386719 288.699219 594.363281 C 290.367188 557.164062 310.011719 522.71875 341.253906 502.234375 C 360.21875 489.796875 382.285156 483.21875 405.058594 483.21875 C 408.628906 483.21875 412.214844 483.378906 415.703125 483.703125 C 434.605469 485.410156 452.988281 491.8125 468.863281 502.234375 C 482.746094 511.332031 494.761719 523.558594 503.613281 537.59375 C 514.359375 554.589844 520.515625 574.222656 521.417969 594.363281 C 521.464844 595.386719 520.996094 596.367188 520.179688 596.984375 C 510.378906 604.289062 499.84375 610.695312 488.867188 615.984375 C 487.234375 616.789062 485.527344 617.578125 483.785156 618.359375 C 458.972656 629.472656 432.492188 635.121094 405.058594 635.121094 " fill-opacity="1" fill-rule="nonzero"/></g></g><g clip-path="url(#id6)"><g clip-path="url(#id7)"><path fill="#ffffff" d="M 467.167969 504.816406 C 465.4375 517.910156 459.664062 529.742188 451.121094 538.988281 C 439.671875 551.390625 423.28125 559.164062 405.058594 559.164062 C 375.867188 559.164062 351.339844 539.199219 344.378906 512.175781 C 343.761719 509.777344 343.28125 507.316406 342.945312 504.816406 C 360.785156 493.109375 382.125 486.3125 405.058594 486.3125 C 408.554688 486.3125 412.019531 486.460938 415.429688 486.78125 C 416.023438 486.828125 416.617188 486.890625 417.199219 486.953125 C 417.570312 486.992188 417.941406 487.027344 418.296875 487.078125 C 418.707031 487.113281 419.113281 487.175781 419.511719 487.226562 C 419.757812 487.25 420.015625 487.289062 420.265625 487.324219 C 420.621094 487.363281 420.992188 487.421875 421.363281 487.472656 C 421.648438 487.511719 421.933594 487.558594 422.230469 487.597656 C 422.476562 487.632812 422.722656 487.671875 422.972656 487.71875 C 423.390625 487.78125 423.800781 487.855469 424.21875 487.917969 C 426.023438 488.226562 427.816406 488.574219 429.585938 488.96875 L 430.773438 489.226562 C 430.996094 489.289062 431.230469 489.339844 431.453125 489.402344 C 431.871094 489.5 432.304688 489.597656 432.714844 489.710938 C 432.789062 489.722656 432.847656 489.734375 432.898438 489.746094 C 433.429688 489.882812 433.960938 490.019531 434.480469 490.167969 C 435.050781 490.304688 435.605469 490.464844 436.148438 490.625 C 436.78125 490.796875 437.398438 490.984375 438.03125 491.167969 C 438.511719 491.316406 438.992188 491.464844 439.476562 491.625 C 439.785156 491.726562 440.105469 491.824219 440.402344 491.921875 C 440.910156 492.085938 441.417969 492.257812 441.910156 492.429688 C 442.53125 492.640625 443.136719 492.851562 443.742188 493.074219 C 443.789062 493.097656 443.828125 493.109375 443.863281 493.121094 C 444.496094 493.34375 445.113281 493.582031 445.730469 493.816406 C 446.1875 494 446.660156 494.171875 447.128906 494.371094 C 448.351562 494.855469 449.550781 495.359375 450.738281 495.878906 L 452.296875 496.585938 C 452.765625 496.792969 453.234375 497.015625 453.707031 497.238281 C 454.136719 497.449219 454.558594 497.648438 454.980469 497.859375 C 455.375 498.042969 455.757812 498.242188 456.140625 498.4375 C 456.386719 498.5625 456.648438 498.6875 456.894531 498.820312 C 457.921875 499.339844 458.921875 499.886719 459.910156 500.429688 C 460.269531 500.628906 460.640625 500.835938 460.988281 501.035156 C 461.222656 501.171875 461.445312 501.292969 461.667969 501.417969 L 462.507812 501.914062 L 463.359375 502.433594 L 463.917969 502.765625 C 464.449219 503.074219 464.96875 503.394531 465.488281 503.730469 C 466.054688 504.089844 466.613281 504.445312 467.167969 504.816406 " fill-opacity="1" fill-rule="nonzero"/></g></g><g clip-path="url(#id8)"><g clip-path="url(#id9)"><path fill="#231f1f" d="M 346.296875 506.339844 C 346.582031 508.03125 346.941406 509.738281 347.371094 511.40625 C 354.148438 537.703125 377.871094 556.074219 405.058594 556.074219 C 421.636719 556.074219 437.597656 549.078125 448.847656 536.886719 C 456.773438 528.308594 461.925781 517.785156 463.820312 506.339844 C 463.324219 506.015625 462.855469 505.71875 462.359375 505.4375 L 459.441406 503.71875 C 459.109375 503.53125 458.761719 503.320312 458.414062 503.136719 C 457.464844 502.605469 456.488281 502.085938 455.5 501.578125 C 455.277344 501.457031 455.128906 501.394531 454.980469 501.320312 L 454.757812 501.195312 C 454.347656 500.996094 454.015625 500.8125 453.65625 500.652344 C 453.335938 500.492188 453.074219 500.367188 452.816406 500.242188 L 452.273438 499.972656 C 451.851562 499.785156 451.441406 499.589844 451.035156 499.402344 L 449.464844 498.699219 C 448.339844 498.203125 447.179688 497.722656 445.992188 497.238281 C 445.667969 497.105469 445.410156 497.015625 445.164062 496.90625 L 444.570312 496.683594 C 444.039062 496.472656 443.445312 496.25 442.839844 496.039062 C 442.777344 496.015625 442.679688 495.980469 442.554688 495.929688 C 442.011719 495.730469 441.464844 495.546875 440.921875 495.359375 C 440.414062 495.1875 439.945312 495.015625 439.464844 494.867188 L 438.535156 494.570312 C 438.042969 494.410156 437.585938 494.261719 437.128906 494.125 L 436.90625 494.0625 C 436.386719 493.902344 435.867188 493.753906 435.335938 493.605469 C 434.777344 493.445312 434.269531 493.296875 433.765625 493.171875 C 433.714844 493.160156 433.679688 493.160156 433.628906 493.136719 C 433.144531 493 432.652344 492.875 432.15625 492.75 C 432.058594 492.738281 431.996094 492.714844 431.898438 492.691406 C 431.589844 492.605469 431.253906 492.53125 430.933594 492.457031 L 430.746094 492.40625 C 430.699219 492.40625 430.648438 492.382812 430.613281 492.382812 L 430.390625 492.320312 C 430.265625 492.292969 430.140625 492.257812 430.03125 492.234375 L 428.929688 491.984375 C 427.261719 491.613281 425.566406 491.28125 423.699219 490.972656 L 422.527344 490.773438 C 422.464844 490.773438 422.414062 490.761719 422.367188 490.75 C 422.191406 490.710938 422.03125 490.6875 421.871094 490.664062 C 421.660156 490.636719 421.476562 490.613281 421.277344 490.589844 L 420.511719 490.476562 C 420.324219 490.441406 420.140625 490.414062 419.953125 490.402344 C 419.894531 490.402344 419.84375 490.390625 419.78125 490.378906 C 419.597656 490.355469 419.398438 490.316406 419.214844 490.304688 L 418.78125 490.242188 C 418.519531 490.21875 418.261719 490.179688 418 490.15625 C 417.554688 490.09375 417.222656 490.070312 416.890625 490.03125 C 416.308594 489.96875 415.738281 489.910156 415.171875 489.859375 C 411.929688 489.5625 408.542969 489.402344 405.058594 489.402344 C 384.140625 489.402344 363.863281 495.25 346.296875 506.339844 Z M 405.058594 562.257812 C 375.039062 562.257812 348.855469 541.980469 341.390625 512.941406 C 340.734375 510.40625 340.226562 507.808594 339.878906 505.226562 C 339.71875 504.050781 340.25 502.890625 341.242188 502.234375 C 360.203125 489.796875 382.261719 483.21875 405.058594 483.21875 C 408.730469 483.21875 412.328125 483.378906 415.714844 483.703125 C 416.308594 483.75 416.914062 483.8125 417.519531 483.886719 C 417.914062 483.925781 418.3125 483.960938 418.707031 484.011719 C 418.929688 484.035156 419.261719 484.074219 419.597656 484.121094 L 419.90625 484.160156 C 420.101562 484.171875 420.375 484.222656 420.660156 484.257812 C 420.894531 484.285156 421.140625 484.320312 421.402344 484.355469 L 422.601562 484.53125 C 422.636719 484.53125 422.785156 484.554688 422.8125 484.554688 C 423.035156 484.59375 423.269531 484.628906 423.492188 484.679688 C 423.699219 484.703125 423.898438 484.742188 424.097656 484.765625 L 424.664062 484.851562 C 426.703125 485.210938 428.511719 485.554688 430.253906 485.953125 L 431.425781 486.210938 L 431.613281 486.25 L 431.835938 486.3125 C 431.960938 486.335938 432.09375 486.371094 432.21875 486.410156 L 432.34375 486.433594 C 432.6875 486.519531 433.046875 486.59375 433.394531 486.695312 C 433.480469 486.707031 433.554688 486.730469 433.628906 486.742188 C 434.222656 486.890625 434.753906 487.027344 435.261719 487.175781 C 435.867188 487.324219 436.460938 487.496094 437.027344 487.660156 C 437.535156 487.792969 438.089844 487.96875 438.660156 488.128906 L 438.90625 488.203125 C 439.4375 488.375 439.945312 488.523438 440.453125 488.695312 L 441.378906 488.992188 C 441.875 489.152344 442.40625 489.328125 442.925781 489.511719 C 443.542969 489.722656 444.175781 489.945312 444.804688 490.179688 C 444.855469 490.191406 444.914062 490.21875 444.964844 490.230469 C 445.632812 490.476562 446.226562 490.699219 446.832031 490.921875 L 447.402344 491.144531 C 447.710938 491.269531 448.019531 491.390625 448.328125 491.527344 C 449.515625 491.984375 450.75 492.515625 451.976562 493.046875 L 453.570312 493.765625 C 454.015625 493.964844 454.460938 494.171875 454.917969 494.394531 L 455.484375 494.667969 C 455.78125 494.816406 456.066406 494.953125 456.363281 495.101562 C 456.710938 495.261719 457.117188 495.460938 457.511719 495.667969 L 457.722656 495.78125 C 457.945312 495.878906 458.15625 495.992188 458.378906 496.113281 C 459.34375 496.597656 460.382812 497.164062 461.40625 497.722656 C 461.777344 497.933594 462.160156 498.140625 462.519531 498.351562 L 463.101562 498.671875 C 463.113281 498.6875 463.210938 498.734375 463.238281 498.761719 L 465.511719 500.121094 C 466.042969 500.417969 466.601562 500.773438 467.15625 501.121094 C 467.726562 501.492188 468.304688 501.863281 468.886719 502.246094 C 469.863281 502.902344 470.382812 504.050781 470.234375 505.226562 C 468.453125 518.6875 462.632812 531.089844 453.398438 541.089844 C 440.972656 554.542969 423.355469 562.257812 405.058594 562.257812 " fill-opacity="1" fill-rule="nonzero"/></g></g><g clip-path="url(#id10)"><g clip-path="url(#id11)"><path fill="#ffffff" d="M 377.464844 509.527344 L 377.464844 455.21875 C 377.464844 441.484375 388.6875 430.257812 402.425781 430.257812 L 407.691406 430.257812 C 421.425781 430.257812 432.664062 441.484375 432.664062 455.21875 L 432.664062 509.527344 C 432.664062 523.261719 421.425781 534.515625 407.691406 534.515625 L 402.425781 534.515625 " fill-opacity="1" fill-rule="nonzero"/></g></g><g clip-path="url(#id12)"><g clip-path="url(#id13)"><path fill="#231f1f" d="M 407.691406 537.605469 L 402.425781 537.605469 C 400.71875 537.605469 399.332031 536.21875 399.332031 534.515625 C 399.332031 532.808594 400.71875 531.421875 402.425781 531.421875 L 407.691406 531.421875 C 419.757812 531.421875 429.574219 521.59375 429.574219 509.527344 L 429.574219 455.21875 C 429.574219 443.152344 419.757812 433.347656 407.691406 433.347656 L 402.425781 433.347656 C 390.359375 433.347656 380.554688 443.152344 380.554688 455.21875 L 380.554688 509.527344 C 380.554688 511.234375 379.167969 512.617188 377.464844 512.617188 C 375.757812 512.617188 374.371094 511.234375 374.371094 509.527344 L 374.371094 455.21875 C 374.371094 439.753906 386.957031 427.167969 402.425781 427.167969 L 407.691406 427.167969 C 423.167969 427.167969 435.753906 439.753906 435.753906 455.21875 L 435.753906 509.527344 C 435.753906 525.007812 423.167969 537.605469 407.691406 537.605469 " fill-opacity="1" fill-rule="nonzero"/></g></g><g clip-path="url(#id14)"><g clip-path="url(#id15)"><path fill="#ffffff" d="M 472.375 434.273438 C 472.375 434.273438 485.304688 429.875 493.5625 415.460938 C 502.539062 399.808594 496.902344 390.054688 495.121094 387.9375 C 490.261719 382.179688 482.757812 385.875 481.523438 387.9375 C 480.285156 390.003906 462.382812 422.519531 472.375 434.273438 " fill-opacity="1" fill-rule="nonzero"/></g></g><g clip-path="url(#id16)"><g clip-path="url(#id17)"><path fill="#231f1f" d="M 488.644531 387.9375 C 486.453125 387.9375 484.5 389.152344 484.128906 389.609375 C 481.25 394.40625 468.566406 419.699219 473.535156 430.40625 C 477.332031 428.527344 485.292969 423.667969 490.878906 413.925781 C 499.734375 398.496094 493.058594 390.277344 492.761719 389.929688 C 491.636719 388.59375 490.289062 387.9375 488.644531 387.9375 Z M 472.375 437.367188 C 471.472656 437.367188 470.605469 436.984375 470.011719 436.277344 C 457.996094 422.121094 478.667969 386.703125 478.875 386.34375 C 480.238281 384.09375 484.253906 381.757812 488.644531 381.757812 C 492.128906 381.757812 495.183594 383.214844 497.496094 385.949219 C 501.15625 390.289062 505.011719 401.710938 496.246094 417.003906 C 487.503906 432.246094 473.945312 437.007812 473.363281 437.207031 C 473.042969 437.316406 472.707031 437.367188 472.375 437.367188 " fill-opacity="1" fill-rule="nonzero"/></g></g><g clip-path="url(#id18)"><g clip-path="url(#id19)"><path fill="#ffffff" d="M 341.105469 434.273438 C 341.105469 434.273438 328.171875 429.875 319.914062 415.460938 C 310.925781 399.808594 316.5625 390.054688 318.34375 387.9375 C 323.203125 382.179688 330.707031 385.875 331.945312 387.9375 C 333.179688 390.003906 351.09375 422.519531 341.105469 434.273438 " fill-opacity="1" fill-rule="nonzero"/></g></g><g clip-path="url(#id20)"><g clip-path="url(#id21)"><path fill="#231f1f" d="M 324.824219 387.9375 C 323.179688 387.9375 321.84375 388.59375 320.707031 389.929688 C 320.421875 390.277344 313.734375 398.496094 322.585938 413.925781 C 328.222656 423.742188 336.148438 428.5625 339.941406 430.417969 C 344.910156 419.710938 332.226562 394.40625 329.296875 389.535156 C 328.976562 389.152344 327.023438 387.9375 324.824219 387.9375 Z M 341.105469 437.367188 C 340.769531 437.367188 340.4375 437.316406 340.101562 437.207031 C 339.535156 437.007812 325.972656 432.246094 317.21875 417.003906 C 308.464844 401.710938 312.324219 390.289062 315.984375 385.949219 C 318.292969 383.214844 321.347656 381.757812 324.824219 381.757812 C 329.222656 381.757812 333.242188 384.09375 334.601562 386.34375 C 334.8125 386.703125 355.480469 422.121094 343.464844 436.277344 C 342.859375 436.984375 341.996094 437.367188 341.105469 437.367188 " fill-opacity="1" fill-rule="nonzero"/></g></g><g clip-path="url(#id22)"><g clip-path="url(#id23)"><path fill="#ffffff" d="M 485.046875 385.441406 C 485.046875 338.066406 450.070312 299.644531 406.910156 299.644531 C 363.765625 299.644531 328.765625 338.066406 328.765625 385.441406 C 328.765625 432.839844 363.765625 482.378906 406.910156 482.378906 C 447.460938 482.378906 485.046875 432.445312 485.046875 385.441406 " fill-opacity="1" fill-rule="nonzero"/></g></g><g clip-path="url(#id24)"><g clip-path="url(#id25)"><path fill="#231f1f" d="M 406.910156 302.734375 C 365.535156 302.734375 331.855469 339.847656 331.855469 385.441406 C 331.855469 408.042969 339.96875 431.492188 354.109375 449.804688 C 368.796875 468.816406 387.550781 479.289062 406.910156 479.289062 C 425.011719 479.289062 443.902344 468.472656 458.761719 449.617188 C 473.5 430.914062 481.953125 407.523438 481.953125 385.441406 C 481.953125 339.847656 448.289062 302.734375 406.910156 302.734375 Z M 406.910156 485.46875 C 360.425781 485.46875 325.675781 432.667969 325.675781 385.441406 C 325.675781 336.433594 362.121094 296.554688 406.910156 296.554688 C 451.703125 296.554688 488.136719 336.433594 488.136719 385.441406 C 488.136719 435.933594 447.90625 485.46875 406.910156 485.46875 " fill-opacity="1" fill-rule="nonzero"/></g></g><g clip-path="url(#id26)"><g clip-path="url(#id27)"><path fill="#ffffff" d="M 412.289062 324.074219 C 412.289062 324.074219 435.46875 372.695312 490.757812 368.011719 C 490.757812 368.011719 493.589844 379.496094 490.324219 349.144531 C 486.640625 314.9375 456.339844 286.144531 406.910156 296.453125 C 406.910156 296.453125 400.753906 293.980469 412.289062 324.074219 " fill-opacity="1" fill-rule="nonzero"/></g></g><g clip-path="url(#id28)"><g clip-path="url(#id29)"><path fill="#231f1f" d="M 415.132812 322.824219 C 416.246094 325.050781 437.078125 365.242188 483.328125 365.242188 C 485.09375 365.242188 486.886719 365.179688 488.679688 365.066406 C 488.507812 362.199219 488.097656 357.425781 487.246094 349.476562 C 484.453125 323.566406 464.609375 297.429688 426.558594 297.429688 C 420.734375 297.429688 414.613281 298.0625 408.347656 299.308594 C 408.347656 301.3125 409.125 307.160156 415.132812 322.824219 Z M 491.621094 373.226562 C 490.089844 373.226562 489.1875 372.335938 488.617188 371.261719 C 486.839844 371.359375 485.070312 371.421875 483.328125 371.421875 C 432.035156 371.421875 409.730469 325.851562 409.507812 325.394531 C 409.472656 325.320312 409.433594 325.246094 409.410156 325.171875 C 400.941406 303.09375 401.535156 297.605469 403.214844 295.144531 C 404.019531 293.980469 405.253906 293.3125 406.617188 293.3125 L 406.8125 293.3125 C 413.589844 291.941406 420.226562 291.25 426.558594 291.25 C 468.441406 291.25 490.300781 320.152344 493.390625 348.824219 C 495.703125 370.261719 495.132812 370.890625 493.996094 372.164062 C 493.402344 372.820312 492.5 373.226562 491.621094 373.226562 " fill-opacity="1" fill-rule="nonzero"/></g></g><g clip-path="url(#id30)"><g clip-path="url(#id31)"><path fill="#ffffff" d="M 416.417969 299.644531 C 416.417969 299.644531 418.472656 290.691406 411.054688 283.683594 C 403.636719 276.671875 307.601562 274.609375 330.964844 369 C 330.964844 369 377.117188 359.9375 412.289062 324.074219 L 416.417969 299.644531 " fill-opacity="1" fill-rule="nonzero"/></g></g><g clip-path="url(#id32)"><g clip-path="url(#id33)"><path fill="#231f1f" d="M 394.648438 283.832031 C 386.253906 283.832031 357.632812 285.449219 341.363281 306.234375 C 330.324219 320.339844 327.605469 340.195312 333.265625 365.289062 C 343.726562 362.644531 380.441406 351.714844 409.410156 322.589844 L 413.367188 299.136719 L 413.402344 298.949219 C 413.464844 298.679688 414.910156 291.570312 408.941406 285.921875 C 408.136719 285.277344 403.402344 283.832031 394.648438 283.832031 Z M 330.953125 372.089844 C 329.570312 372.089844 328.308594 371.136719 327.960938 369.742188 C 320.929688 341.292969 323.796875 318.65625 336.492188 302.425781 C 354.492188 279.441406 385.550781 277.648438 394.648438 277.648438 C 398.046875 277.648438 409.472656 277.921875 413.179688 281.433594 C 421.402344 289.195312 419.707031 299 419.449219 300.222656 L 415.34375 324.578125 C 415.246094 325.199219 414.949219 325.777344 414.503906 326.234375 C 379.058594 362.359375 333.476562 371.65625 331.558594 372.027344 C 331.351562 372.066406 331.152344 372.089844 330.953125 372.089844 " fill-opacity="1" fill-rule="nonzero"/></g></g><g clip-path="url(#id34)"><g clip-path="url(#id35)"><path fill="#231f1f" d="M 407.207031 263.507812 C 407.207031 263.507812 306.488281 262.679688 323.375 385.441406 L 328.765625 385.441406 C 328.765625 385.441406 338.234375 324.566406 408.023438 324.492188 C 477.8125 324.566406 485.046875 385.441406 485.046875 385.441406 L 491.027344 385.441406 C 507.917969 262.679688 407.207031 263.507812 407.207031 263.507812 " fill-opacity="1" fill-rule="nonzero"/></g></g><g clip-path="url(#id36)"><g clip-path="url(#id37)"><path fill="#231f1f" d="M 487.667969 382.351562 L 488.320312 382.351562 C 493.117188 344.101562 486.652344 314.492188 469.085938 294.339844 C 445.164062 266.90625 408.792969 266.597656 407.257812 266.597656 C 405.613281 266.597656 369.242188 266.90625 345.320312 294.339844 C 327.753906 314.492188 321.285156 344.101562 326.082031 382.351562 L 326.257812 382.351562 C 327.445312 377.207031 330.941406 365.242188 339.730469 353.175781 C 350.265625 338.710938 370.675781 321.4375 408.023438 321.402344 C 445.421875 321.4375 465.226562 338.734375 475.253906 353.238281 C 483.550781 365.242188 486.640625 377.144531 487.667969 382.351562 Z M 491.027344 388.53125 L 485.046875 388.53125 C 483.488281 388.53125 482.164062 387.371094 481.980469 385.8125 C 481.96875 385.664062 480.089844 370.976562 470.023438 356.550781 C 456.648438 337.363281 435.78125 327.609375 408.023438 327.582031 C 380.234375 327.609375 358.980469 337.375 344.875 356.613281 C 334.269531 371.0625 331.855469 385.777344 331.832031 385.925781 C 331.597656 387.433594 330.300781 388.53125 328.765625 388.53125 L 323.375 388.53125 C 321.832031 388.53125 320.519531 387.394531 320.308594 385.875 C 314.621094 344.472656 321.460938 312.304688 340.660156 290.285156 C 366.410156 260.75 405.492188 260.414062 407.148438 260.414062 C 408.902344 260.414062 447.992188 260.75 473.746094 290.285156 C 492.945312 312.304688 499.78125 344.472656 494.082031 385.875 C 493.886719 387.394531 492.574219 388.53125 491.027344 388.53125 " fill-opacity="1" fill-rule="nonzero"/></g></g><g clip-path="url(#id38)"><g clip-path="url(#id39)"><path fill="#ffffff" d="M 491.796875 379.234375 L 459.132812 415.148438 L 458.773438 421.75 L 491.027344 385.441406 L 491.796875 379.234375 " fill-opacity="1" fill-rule="nonzero"/></g></g><g clip-path="url(#id40)"><g clip-path="url(#id41)"><path fill="#231f1f" d="M 458.773438 424.84375 C 458.378906 424.84375 457.984375 424.769531 457.601562 424.609375 C 456.386719 424.101562 455.621094 422.890625 455.683594 421.578125 L 456.042969 414.988281 C 456.078125 414.273438 456.363281 413.605469 456.832031 413.074219 L 489.507812 377.144531 C 490.410156 376.15625 491.859375 375.859375 493.082031 376.417969 C 494.304688 376.984375 495.023438 378.269531 494.863281 379.605469 L 494.09375 385.824219 C 494.019531 386.457031 493.75 387.035156 493.339844 387.507812 L 461.085938 423.804688 C 460.480469 424.472656 459.640625 424.84375 458.773438 424.84375 " fill-opacity="1" fill-rule="nonzero"/></g></g><g clip-path="url(#id42)"><g clip-path="url(#id43)"><path fill="#ffffff" d="M 322.277344 375.933594 L 355.285156 415.148438 L 355.667969 422.480469 L 323.375 385.441406 L 322.277344 375.933594 " fill-opacity="1" fill-rule="nonzero"/></g></g><g clip-path="url(#id44)"><g clip-path="url(#id45)"><path fill="#231f1f" d="M 355.667969 425.570312 C 354.789062 425.570312 353.9375 425.199219 353.34375 424.519531 L 321.039062 387.480469 C 320.632812 387.011719 320.382812 386.429688 320.308594 385.800781 L 319.199219 376.292969 C 319.050781 374.933594 319.789062 373.636719 321.039062 373.105469 C 322.300781 372.558594 323.757812 372.90625 324.636719 373.945312 L 357.644531 413.160156 C 358.078125 413.679688 358.324219 414.320312 358.363281 414.988281 L 358.734375 421.925781 C 358.757812 422.109375 358.785156 422.296875 358.785156 422.480469 C 358.785156 424.1875 357.398438 425.570312 355.703125 425.570312 L 355.667969 425.570312 " fill-opacity="1" fill-rule="nonzero"/></g></g><g clip-path="url(#id46)"><g clip-path="url(#id47)"><path fill="#231f1f" d="M 407.207031 410.675781 L 349.722656 416.484375 C 349.722656 416.484375 351.921875 455.933594 359.945312 465.578125 C 368.128906 475.40625 394.5625 485.113281 407.34375 484.902344 C 420.226562 484.691406 446.261719 473.886719 454.386719 463.882812 C 462.039062 454.476562 464.695312 416.484375 464.695312 416.484375 L 407.207031 410.675781 " fill-opacity="1" fill-rule="nonzero"/></g></g><g clip-path="url(#id48)"><g clip-path="url(#id49)"><path fill="#231f1f" d="M 352.984375 419.265625 C 353.886719 431.617188 356.769531 456.925781 362.320312 463.601562 C 369.648438 472.390625 394.773438 481.8125 406.9375 481.8125 L 407.296875 481.8125 C 419.25 481.613281 444.371094 471.300781 451.988281 461.929688 C 457.253906 455.441406 460.332031 431.222656 461.371094 419.265625 L 407.207031 413.777344 Z M 406.9375 487.992188 C 393.113281 487.992188 366.1875 477.878906 357.570312 467.542969 C 349.140625 457.429688 346.851562 420.8125 346.628906 416.660156 C 346.53125 415.015625 347.753906 413.578125 349.398438 413.417969 L 406.886719 407.597656 C 407.097656 407.582031 407.308594 407.582031 407.519531 407.597656 L 465.003906 413.417969 C 466.660156 413.578125 467.886719 415.039062 467.773438 416.707031 C 467.488281 420.6875 464.820312 455.949219 456.785156 465.835938 C 447.894531 476.777344 420.992188 487.769531 407.40625 487.992188 L 406.9375 487.992188 " fill-opacity="1" fill-rule="nonzero"/></g></g><g clip-path="url(#id50)"><g clip-path="url(#id51)"><path fill="#231f1f" d="M 468.269531 383.996094 C 467.699219 383.996094 467.132812 383.835938 466.613281 383.511719 C 444.558594 369.457031 425.195312 381.101562 424.394531 381.609375 C 422.933594 382.5 421.03125 382.054688 420.140625 380.609375 C 419.238281 379.160156 419.683594 377.257812 421.117188 376.355469 C 422.070312 375.773438 444.507812 362.101562 469.925781 378.296875 C 471.371094 379.210938 471.804688 381.128906 470.878906 382.5625 C 470.285156 383.488281 469.296875 383.996094 468.269531 383.996094 " fill-opacity="1" fill-rule="nonzero"/></g></g><g clip-path="url(#id52)"><g clip-path="url(#id53)"><path fill="#231f1f" d="M 458.835938 397.695312 C 458.28125 397.695312 457.722656 397.546875 457.214844 397.234375 C 444.050781 389.125 433.824219 396.964844 433.726562 397.039062 C 432.378906 398.089844 430.425781 397.855469 429.375 396.519531 C 428.324219 395.183594 428.558594 393.230469 429.90625 392.179688 C 430.449219 391.734375 443.667969 381.621094 460.457031 391.980469 C 461.914062 392.871094 462.359375 394.777344 461.46875 396.234375 C 460.875 397.175781 459.875 397.695312 458.835938 397.695312 " fill-opacity="1" fill-rule="nonzero"/></g></g><g clip-path="url(#id54)"><g clip-path="url(#id55)"><path fill="#231f1f" d="M 351.476562 397.695312 C 350.4375 397.695312 349.425781 397.175781 348.84375 396.234375 C 347.941406 394.777344 348.398438 392.871094 349.84375 391.980469 C 366.632812 381.621094 379.851562 391.734375 380.40625 392.179688 C 381.753906 393.230469 381.976562 395.183594 380.925781 396.519531 C 379.875 397.855469 377.945312 398.089844 376.597656 397.050781 C 376.164062 396.71875 366.113281 389.210938 353.097656 397.234375 C 352.589844 397.546875 352.03125 397.695312 351.476562 397.695312 " fill-opacity="1" fill-rule="nonzero"/></g></g><g clip-path="url(#id56)"><g clip-path="url(#id57)"><path fill="#231f1f" d="M 387.132812 383.414062 C 386.488281 383.414062 385.832031 383.214844 385.289062 382.808594 C 384.511719 382.238281 366.1875 369.035156 343.058594 381.203125 C 341.550781 382.003906 339.671875 381.425781 338.878906 379.914062 C 338.085938 378.40625 338.65625 376.527344 340.175781 375.738281 C 366.855469 361.707031 388.09375 377.183594 388.984375 377.851562 C 390.347656 378.878906 390.628906 380.804688 389.605469 382.179688 C 389 382.992188 388.070312 383.414062 387.132812 383.414062 " fill-opacity="1" fill-rule="nonzero"/></g></g><g clip-path="url(#id58)"><g clip-path="url(#id59)"><path fill="#231f1f" d="M 448.921875 401.984375 C 448.921875 407.730469 445.59375 412.40625 441.480469 412.40625 C 437.363281 412.40625 434.035156 407.730469 434.035156 401.984375 C 434.035156 396.210938 437.363281 391.535156 441.480469 391.535156 C 445.59375 391.535156 448.921875 396.210938 448.921875 401.984375 " fill-opacity="1" fill-rule="nonzero"/></g></g><g clip-path="url(#id60)"><g clip-path="url(#id61)"><path fill="#231f1f" d="M 376.636719 401.984375 C 376.636719 407.730469 373.296875 412.40625 369.191406 412.40625 C 365.074219 412.40625 361.738281 407.730469 361.738281 401.984375 C 361.738281 396.210938 365.074219 391.535156 369.191406 391.535156 C 373.296875 391.535156 376.636719 396.210938 376.636719 401.984375 " fill-opacity="1" fill-rule="nonzero"/></g></g><g fill="#000000" fill-opacity="1"><g transform="translate(151.81504, 161.509481)"><g><path d="M 30.765625 -25.953125 C 30.472656 -22.238281 29.617188 -13.125 28.894531 -9.007812 C 28.816406 -9.007812 28.734375 -9.007812 28.65625 -8.980469 C 27.15625 -14.488281 25.929688 -19.726562 24.566406 -24.058594 C 23.308594 -28.121094 18.335938 -26.996094 16.25 -26.277344 C 15.878906 -24.914062 14.246094 -19.085938 13.339844 -15.394531 C 12.832031 -13.257812 12.324219 -11.199219 11.839844 -9.140625 C 11.734375 -9.140625 11.652344 -9.140625 11.574219 -9.140625 C 11.226562 -12.164062 11.386719 -16.894531 10.71875 -23.015625 C 10.078125 -29.003906 1.84375 -27.476562 0.855469 -24.136719 C 1.628906 -17.453125 2.21875 -7.9375 3.609375 -4.464844 C 6.550781 2.832031 14.542969 0.242188 18.175781 -0.910156 C 18.710938 -4.945312 19.21875 -9.195312 19.621094 -12.402344 C 19.726562 -12.402344 19.808594 -12.402344 19.941406 -12.402344 C 20.289062 -8.980469 20.394531 -7.378906 21.035156 -4.972656 C 23.253906 3.367188 31.675781 0.507812 35.308594 -0.640625 C 36.78125 -4.8125 39.558594 -16.4375 40.121094 -20.984375 C 40.84375 -26.96875 35.148438 -28.09375 30.765625 -25.953125 Z M 30.765625 -25.953125 "/></g></g></g><g fill="#000000" fill-opacity="1"><g transform="translate(191.717682, 161.509481)"><g><path d="M 1.46875 -6.175781 C 1.683594 -2.539062 2.78125 -0.75 5.292969 -0.105469 C 7.21875 0.347656 14.195312 0.292969 16.414062 0 C 21.492188 -0.667969 22.1875 -5.292969 20.15625 -8.152344 C 17.292969 -8.152344 14.433594 -8.152344 11.574219 -8.152344 C 11.359375 -8.152344 11.144531 -8.152344 10.960938 -8.152344 C 10.960938 -8.714844 10.960938 -9.195312 10.960938 -9.78125 C 13.445312 -9.78125 14.246094 -9.730469 15.609375 -9.78125 C 19.539062 -9.96875 20.769531 -13.070312 19.164062 -16.625 C 16.894531 -17.347656 12.484375 -17.054688 10.933594 -17.054688 C 10.933594 -17.589844 10.933594 -18.015625 10.933594 -18.445312 C 14.378906 -18.445312 14.996094 -18.445312 16.4375 -18.445312 C 22.882812 -18.445312 22.1875 -25.074219 21.195312 -26.488281 C 16.4375 -26.863281 6.363281 -26.96875 1.898438 -26.515625 C 1.363281 -22 1.257812 -9.835938 1.46875 -6.175781 Z M 1.46875 -6.175781 "/></g></g></g><g fill="#000000" fill-opacity="1"><g transform="translate(213.339327, 161.509481)"><g/></g></g><g fill="#000000" fill-opacity="1"><g transform="translate(225.927387, 161.509481)"><g><path d="M 21.089844 -9.460938 C 26.4375 -13.472656 25.394531 -22.558594 21.144531 -25.394531 C 15.796875 -29.003906 4.515625 -27.371094 2.191406 -25.097656 C 1.335938 -21.863281 1.445312 -6.894531 1.898438 -4.515625 C 3.074219 1.523438 9.167969 2.113281 11.386719 -0.320312 C 11.679688 -3.207031 11.652344 -7.351562 11.652344 -7.804688 C 11.652344 -7.832031 11.679688 -7.859375 11.679688 -7.859375 C 11.734375 -7.886719 11.761719 -7.886719 11.789062 -7.910156 C 11.816406 -7.910156 11.816406 -7.910156 11.839844 -7.910156 C 12.242188 -7.644531 17.027344 -6.441406 21.089844 -9.460938 Z M 15.769531 -17.054688 C 15.769531 -15.984375 15.394531 -15.421875 14.59375 -15.289062 C 13.925781 -15.15625 13.257812 -15.183594 12.589844 -15.183594 C 12.484375 -15.183594 12.296875 -15.394531 12.296875 -15.503906 C 12.269531 -16.4375 12.269531 -17.1875 12.269531 -18.308594 C 14.035156 -19.378906 15.769531 -18.148438 15.769531 -17.054688 Z M 15.769531 -17.054688 "/></g></g></g><g fill="#000000" fill-opacity="1"><g transform="translate(250.970034, 161.509481)"><g><path d="M 20.875 -9.945312 C 21.089844 -10.050781 21.277344 -10.15625 21.4375 -10.292969 C 27.503906 -14.753906 24.9375 -22.371094 20.6875 -25.234375 C 15.316406 -28.816406 4.0625 -27.183594 1.738281 -24.914062 C 0.855469 -21.679688 1.175781 -7.964844 1.628906 -5.585938 C 2.78125 0.453125 8.660156 1.308594 10.878906 -1.121094 C 11.066406 -2.433594 11.226562 -4.410156 11.332031 -6.601562 C 11.359375 -7.164062 11.386719 -7.726562 11.386719 -8.207031 C 11.441406 -8.207031 11.519531 -8.234375 11.574219 -8.257812 C 11.707031 -8.074219 11.867188 -7.859375 12 -7.644531 C 13.632812 -5.078125 14.40625 -3.902344 15.074219 -2.832031 C 18.230469 2.296875 24.566406 1.578125 25.421875 -3.074219 C 24.832031 -4.679688 22.132812 -8.765625 20.875 -9.945312 Z M 15.316406 -16.785156 C 15.316406 -16.039062 14.941406 -15.53125 14.113281 -15.394531 C 13.472656 -15.261719 12.804688 -15.289062 12.136719 -15.289062 C 12.027344 -15.289062 11.816406 -15.503906 11.816406 -15.609375 C 11.789062 -16.546875 11.816406 -16.972656 11.816406 -18.097656 C 13.847656 -19.03125 15.316406 -18.070312 15.316406 -16.785156 Z M 15.316406 -16.785156 "/></g></g></g><g fill="#000000" fill-opacity="1"><g transform="translate(276.7343, 161.509481)"><g><path d="M 14.78125 -27.265625 C 7.429688 -27.238281 3.875 -23.226562 2.191406 -19.460938 C 0.9375 -16.707031 0.722656 -12.75 1.523438 -9.300781 C 2.351562 -5.640625 4.304688 -2.78125 7.699219 -1.042969 C 11.253906 0.800781 15.023438 1.097656 18.871094 0.160156 C 23.628906 -0.960938 26.757812 -3.902344 28.199219 -8.554688 C 29.269531 -12.082031 28.976562 -15.558594 27.71875 -18.976562 C 26.917969 -21.089844 23.898438 -27.316406 14.78125 -27.265625 Z M 14.914062 -17.695312 C 16.8125 -17.695312 18.523438 -15.957031 18.335938 -12.9375 C 18.175781 -9.917969 16.4375 -8.820312 15.023438 -8.742188 C 13.632812 -8.632812 11.574219 -9.730469 11.386719 -12.832031 C 11.171875 -16.011719 12.9375 -17.695312 14.914062 -17.695312 Z M 14.914062 -17.695312 "/></g></g></g><g fill="#000000" fill-opacity="1"><g transform="translate(305.785938, 161.509481)"><g><path d="M 24.03125 -26.675781 C 20.984375 -26.648438 9.78125 -26.808594 6.414062 -26.597656 C 1.335938 -26.277344 0.960938 -20.019531 2.671875 -17.800781 C 4.410156 -17.453125 6.363281 -17.480469 8.152344 -17.613281 C 8.074219 -12.507812 8.3125 -6.976562 8.582031 -5.480469 C 9.757812 0.722656 15.609375 1.605469 17.855469 -0.882812 C 18.363281 -4.542969 18.550781 -12.617188 18.363281 -17.589844 C 18.496094 -17.589844 19.164062 -17.640625 20.101562 -17.695312 C 26.089844 -18.070312 25.445312 -24.804688 24.03125 -26.675781 Z M 24.03125 -26.675781 "/></g></g></g><g fill="#000000" fill-opacity="1"><g transform="translate(331.176028, 161.509481)"><g><path d="M 1.46875 -6.175781 C 1.683594 -2.539062 2.78125 -0.75 5.292969 -0.105469 C 7.21875 0.347656 14.195312 0.292969 16.414062 0 C 21.492188 -0.667969 22.1875 -5.292969 20.15625 -8.152344 C 17.292969 -8.152344 14.433594 -8.152344 11.574219 -8.152344 C 11.359375 -8.152344 11.144531 -8.152344 10.960938 -8.152344 C 10.960938 -8.714844 10.960938 -9.195312 10.960938 -9.78125 C 13.445312 -9.78125 14.246094 -9.730469 15.609375 -9.78125 C 19.539062 -9.96875 20.769531 -13.070312 19.164062 -16.625 C 16.894531 -17.347656 12.484375 -17.054688 10.933594 -17.054688 C 10.933594 -17.589844 10.933594 -18.015625 10.933594 -18.445312 C 14.378906 -18.445312 14.996094 -18.445312 16.4375 -18.445312 C 22.882812 -18.445312 22.1875 -25.074219 21.195312 -26.488281 C 16.4375 -26.863281 6.363281 -26.96875 1.898438 -26.515625 C 1.363281 -22 1.257812 -9.835938 1.46875 -6.175781 Z M 1.46875 -6.175781 "/></g></g></g><g fill="#000000" fill-opacity="1"><g transform="translate(352.797682, 161.509481)"><g><path d="M 17.722656 -18.285156 C 21.222656 -16.867188 26.007812 -19.566406 24.671875 -24.671875 C 18.925781 -27.984375 13.472656 -27.984375 9.007812 -25.820312 C 5.667969 -24.164062 3.207031 -21.839844 2.003906 -18.285156 C 0.9375 -15.128906 1.042969 -11.949219 1.925781 -8.792969 C 3.234375 -4.25 6.148438 -1.257812 10.800781 -0.0546875 C 13.898438 0.722656 18.578125 0.910156 21.4375 -0.425781 C 28.253906 -3.636719 25.792969 -10.105469 22.027344 -10.824219 C 21.382812 -10.425781 19.085938 -8.902344 17.269531 -8.660156 C 14.542969 -8.257812 11.921875 -9.273438 11.492188 -12.429688 C 11.199219 -14.515625 11.601562 -16.546875 13.5 -17.722656 C 14.941406 -18.628906 16.089844 -18.683594 17.722656 -18.285156 Z M 17.722656 -18.285156 "/></g></g></g><g fill="#000000" fill-opacity="1"><g transform="translate(378.455036, 161.509481)"><g><path d="M 24.03125 -26.675781 C 20.984375 -26.648438 9.78125 -26.808594 6.414062 -26.597656 C 1.335938 -26.277344 0.960938 -20.019531 2.671875 -17.800781 C 4.410156 -17.453125 6.363281 -17.480469 8.152344 -17.613281 C 8.074219 -12.507812 8.3125 -6.976562 8.582031 -5.480469 C 9.757812 0.722656 15.609375 1.605469 17.855469 -0.882812 C 18.363281 -4.542969 18.550781 -12.617188 18.363281 -17.589844 C 18.496094 -17.589844 19.164062 -17.640625 20.101562 -17.695312 C 26.089844 -18.070312 25.445312 -24.804688 24.03125 -26.675781 Z M 24.03125 -26.675781 "/></g></g></g><g fill="#000000" fill-opacity="1"><g transform="translate(403.845126, 161.509481)"><g/></g></g><g fill="#000000" fill-opacity="1"><g transform="translate(416.433192, 161.509481)"><g><path d="M 1.46875 -6.175781 C 1.683594 -2.539062 2.78125 -0.75 5.292969 -0.105469 C 7.21875 0.347656 14.195312 0.292969 16.414062 0 C 21.492188 -0.667969 22.1875 -5.292969 20.15625 -8.152344 C 17.292969 -8.152344 14.433594 -8.152344 11.574219 -8.152344 C 11.359375 -8.152344 11.144531 -8.152344 10.960938 -8.152344 C 10.960938 -8.714844 10.960938 -9.195312 10.960938 -9.78125 C 13.445312 -9.78125 14.246094 -9.730469 15.609375 -9.78125 C 19.539062 -9.96875 20.769531 -13.070312 19.164062 -16.625 C 16.894531 -17.347656 12.484375 -17.054688 10.933594 -17.054688 C 10.933594 -17.589844 10.933594 -18.015625 10.933594 -18.445312 C 14.378906 -18.445312 14.996094 -18.445312 16.4375 -18.445312 C 22.882812 -18.445312 22.1875 -25.074219 21.195312 -26.488281 C 16.4375 -26.863281 6.363281 -26.96875 1.898438 -26.515625 C 1.363281 -22 1.257812 -9.835938 1.46875 -6.175781 Z M 1.46875 -6.175781 "/></g></g></g><g fill="#000000" fill-opacity="1"><g transform="translate(438.054833, 161.509481)"><g><path d="M 0.640625 -7.992188 C -0.507812 -1.925781 2.511719 2.273438 9.089844 -0.132812 C 9.460938 -1.523438 9.890625 -2.859375 10.34375 -3.984375 C 12.054688 -3.929688 13.925781 -4.035156 15.609375 -3.957031 C 17.722656 3.367188 25.875 0.0546875 26.25 -2.859375 C 25.234375 -8.472656 22.371094 -17.960938 20.929688 -21.492188 C 17.882812 -28.921875 9.917969 -27.238281 6.253906 -26.035156 C 4.542969 -22.695312 1.683594 -13.363281 0.640625 -7.992188 Z M 11.308594 -11.707031 C 11.816406 -13.898438 12.324219 -15.984375 12.804688 -18.097656 C 12.882812 -18.097656 12.964844 -18.097656 13.042969 -18.121094 C 13.550781 -15.984375 14.085938 -13.871094 14.59375 -11.707031 C 13.5 -11.707031 12.457031 -11.707031 11.308594 -11.707031 Z M 11.308594 -11.707031 "/></g></g></g><g fill="#000000" fill-opacity="1"><g transform="translate(463.712188, 161.509481)"><g><path d="M 17.722656 -18.285156 C 21.222656 -16.867188 26.007812 -19.566406 24.671875 -24.671875 C 18.925781 -27.984375 13.472656 -27.984375 9.007812 -25.820312 C 5.667969 -24.164062 3.207031 -21.839844 2.003906 -18.285156 C 0.9375 -15.128906 1.042969 -11.949219 1.925781 -8.792969 C 3.234375 -4.25 6.148438 -1.257812 10.800781 -0.0546875 C 13.898438 0.722656 18.578125 0.910156 21.4375 -0.425781 C 28.253906 -3.636719 25.792969 -10.105469 22.027344 -10.824219 C 21.382812 -10.425781 19.085938 -8.902344 17.269531 -8.660156 C 14.542969 -8.257812 11.921875 -9.273438 11.492188 -12.429688 C 11.199219 -14.515625 11.601562 -16.546875 13.5 -17.722656 C 14.941406 -18.628906 16.089844 -18.683594 17.722656 -18.285156 Z M 17.722656 -18.285156 "/></g></g></g><g fill="#000000" fill-opacity="1"><g transform="translate(489.369543, 161.509481)"><g><path d="M 11.199219 -17.480469 C 11.199219 -17.75 11.359375 -20.289062 11.121094 -22.640625 C 10.71875 -26.703125 4.703125 -28.171875 1.148438 -25.234375 C 0.828125 -20.367188 1.148438 -7.351562 1.363281 -4.410156 C 1.816406 2.164062 9.808594 0.695312 11.28125 -0.640625 C 11.28125 -3.421875 11.28125 -6.226562 11.28125 -8.847656 C 13.042969 -8.847656 14.566406 -8.847656 16.277344 -8.847656 C 16.277344 -7.699219 16.332031 -4.625 16.519531 -3.234375 C 17.132812 1.628906 25.097656 0.667969 26.300781 -0.667969 C 26.355469 -1.28125 26.382812 -2.566406 26.382812 -3.5 C 26.410156 -10.292969 26.410156 -18.816406 26.410156 -21.492188 C 26.410156 -26.597656 19.886719 -28.253906 16.597656 -25.632812 C 16.359375 -24.191406 16.414062 -20.476562 16.332031 -17.480469 C 14.621094 -17.480469 12.964844 -17.480469 11.199219 -17.480469 Z M 11.199219 -17.480469 "/></g></g></g><g fill="#000000" fill-opacity="1"><g transform="translate(516.122692, 161.509481)"><g/></g></g><g fill="#000000" fill-opacity="1"><g transform="translate(528.710758, 161.509481)"><g><path d="M 14.78125 -27.265625 C 7.429688 -27.238281 3.875 -23.226562 2.191406 -19.460938 C 0.9375 -16.707031 0.722656 -12.75 1.523438 -9.300781 C 2.351562 -5.640625 4.304688 -2.78125 7.699219 -1.042969 C 11.253906 0.800781 15.023438 1.097656 18.871094 0.160156 C 23.628906 -0.960938 26.757812 -3.902344 28.199219 -8.554688 C 29.269531 -12.082031 28.976562 -15.558594 27.71875 -18.976562 C 26.917969 -21.089844 23.898438 -27.316406 14.78125 -27.265625 Z M 14.914062 -17.695312 C 16.8125 -17.695312 18.523438 -15.957031 18.335938 -12.9375 C 18.175781 -9.917969 16.4375 -8.820312 15.023438 -8.742188 C 13.632812 -8.632812 11.574219 -9.730469 11.386719 -12.832031 C 11.171875 -16.011719 12.9375 -17.695312 14.914062 -17.695312 Z M 14.914062 -17.695312 "/></g></g></g><g fill="#000000" fill-opacity="1"><g transform="translate(557.762408, 161.509481)"><g><path d="M 24.03125 -26.675781 C 20.984375 -26.648438 9.78125 -26.808594 6.414062 -26.597656 C 1.335938 -26.277344 0.960938 -20.019531 2.671875 -17.800781 C 4.410156 -17.453125 6.363281 -17.480469 8.152344 -17.613281 C 8.074219 -12.507812 8.3125 -6.976562 8.582031 -5.480469 C 9.757812 0.722656 15.609375 1.605469 17.855469 -0.882812 C 18.363281 -4.542969 18.550781 -12.617188 18.363281 -17.589844 C 18.496094 -17.589844 19.164062 -17.640625 20.101562 -17.695312 C 26.089844 -18.070312 25.445312 -24.804688 24.03125 -26.675781 Z M 24.03125 -26.675781 "/></g></g></g><g fill="#000000" fill-opacity="1"><g transform="translate(583.152498, 161.509481)"><g><path d="M 11.199219 -17.480469 C 11.199219 -17.75 11.359375 -20.289062 11.121094 -22.640625 C 10.71875 -26.703125 4.703125 -28.171875 1.148438 -25.234375 C 0.828125 -20.367188 1.148438 -7.351562 1.363281 -4.410156 C 1.816406 2.164062 9.808594 0.695312 11.28125 -0.640625 C 11.28125 -3.421875 11.28125 -6.226562 11.28125 -8.847656 C 13.042969 -8.847656 14.566406 -8.847656 16.277344 -8.847656 C 16.277344 -7.699219 16.332031 -4.625 16.519531 -3.234375 C 17.132812 1.628906 25.097656 0.667969 26.300781 -0.667969 C 26.355469 -1.28125 26.382812 -2.566406 26.382812 -3.5 C 26.410156 -10.292969 26.410156 -18.816406 26.410156 -21.492188 C 26.410156 -26.597656 19.886719 -28.253906 16.597656 -25.632812 C 16.359375 -24.191406 16.414062 -20.476562 16.332031 -17.480469 C 14.621094 -17.480469 12.964844 -17.480469 11.199219 -17.480469 Z M 11.199219 -17.480469 "/></g></g></g><g fill="#000000" fill-opacity="1"><g transform="translate(609.90567, 161.509481)"><g><path d="M 1.46875 -6.175781 C 1.683594 -2.539062 2.78125 -0.75 5.292969 -0.105469 C 7.21875 0.347656 14.195312 0.292969 16.414062 0 C 21.492188 -0.667969 22.1875 -5.292969 20.15625 -8.152344 C 17.292969 -8.152344 14.433594 -8.152344 11.574219 -8.152344 C 11.359375 -8.152344 11.144531 -8.152344 10.960938 -8.152344 C 10.960938 -8.714844 10.960938 -9.195312 10.960938 -9.78125 C 13.445312 -9.78125 14.246094 -9.730469 15.609375 -9.78125 C 19.539062 -9.96875 20.769531 -13.070312 19.164062 -16.625 C 16.894531 -17.347656 12.484375 -17.054688 10.933594 -17.054688 C 10.933594 -17.589844 10.933594 -18.015625 10.933594 -18.445312 C 14.378906 -18.445312 14.996094 -18.445312 16.4375 -18.445312 C 22.882812 -18.445312 22.1875 -25.074219 21.195312 -26.488281 C 16.4375 -26.863281 6.363281 -26.96875 1.898438 -26.515625 C 1.363281 -22 1.257812 -9.835938 1.46875 -6.175781 Z M 1.46875 -6.175781 "/></g></g></g><g fill="#000000" fill-opacity="1"><g transform="translate(631.527311, 161.509481)"><g><path d="M 20.875 -9.945312 C 21.089844 -10.050781 21.277344 -10.15625 21.4375 -10.292969 C 27.503906 -14.753906 24.9375 -22.371094 20.6875 -25.234375 C 15.316406 -28.816406 4.0625 -27.183594 1.738281 -24.914062 C 0.855469 -21.679688 1.175781 -7.964844 1.628906 -5.585938 C 2.78125 0.453125 8.660156 1.308594 10.878906 -1.121094 C 11.066406 -2.433594 11.226562 -4.410156 11.332031 -6.601562 C 11.359375 -7.164062 11.386719 -7.726562 11.386719 -8.207031 C 11.441406 -8.207031 11.519531 -8.234375 11.574219 -8.257812 C 11.707031 -8.074219 11.867188 -7.859375 12 -7.644531 C 13.632812 -5.078125 14.40625 -3.902344 15.074219 -2.832031 C 18.230469 2.296875 24.566406 1.578125 25.421875 -3.074219 C 24.832031 -4.679688 22.132812 -8.765625 20.875 -9.945312 Z M 15.316406 -16.785156 C 15.316406 -16.039062 14.941406 -15.53125 14.113281 -15.394531 C 13.472656 -15.261719 12.804688 -15.289062 12.136719 -15.289062 C 12.027344 -15.289062 11.816406 -15.503906 11.816406 -15.609375 C 11.789062 -16.546875 11.816406 -16.972656 11.816406 -18.097656 C 13.847656 -19.03125 15.316406 -18.070312 15.316406 -16.785156 Z M 15.316406 -16.785156 "/></g></g></g><g fill="#000000" fill-opacity="1"><g transform="translate(144.187496, 683.663242)"><g><path d="M 56.953125 -48.046875 C 56.40625 -41.167969 54.824219 -24.292969 53.488281 -16.675781 C 53.339844 -16.675781 53.191406 -16.675781 53.042969 -16.625 C 50.273438 -26.816406 47.996094 -36.515625 45.472656 -44.53125 C 43.148438 -52.054688 33.941406 -49.976562 30.082031 -48.640625 C 29.390625 -46.117188 26.371094 -35.328125 24.691406 -28.5 C 23.75 -24.542969 22.808594 -20.730469 21.917969 -16.921875 C 21.722656 -16.921875 21.574219 -16.921875 21.425781 -16.921875 C 20.78125 -22.511719 21.078125 -31.269531 19.839844 -42.601562 C 18.652344 -53.6875 3.414062 -50.867188 1.582031 -44.679688 C 3.019531 -32.308594 4.105469 -14.695312 6.679688 -8.261719 C 12.121094 5.246094 26.917969 0.445312 33.644531 -1.683594 C 34.636719 -9.152344 35.574219 -17.019531 36.316406 -22.957031 C 36.515625 -22.957031 36.664062 -22.957031 36.910156 -22.957031 C 37.554688 -16.625 37.753906 -13.65625 38.941406 -9.203125 C 43.046875 6.234375 58.632812 0.941406 65.363281 -1.1875 C 68.085938 -8.90625 73.230469 -30.429688 74.269531 -38.84375 C 75.605469 -49.925781 65.066406 -52.003906 56.953125 -48.046875 Z M 56.953125 -48.046875 "/></g></g></g><g fill="#000000" fill-opacity="1"><g transform="translate(219.688732, 683.663242)"><g><path d="M 2.722656 -11.429688 C 3.117188 -4.699219 5.144531 -1.386719 9.796875 -0.199219 C 13.359375 0.644531 26.273438 0.542969 30.378906 0 C 39.78125 -1.238281 41.070312 -9.796875 37.308594 -15.089844 C 32.011719 -15.089844 26.71875 -15.089844 21.425781 -15.089844 C 21.027344 -15.089844 20.632812 -15.089844 20.285156 -15.089844 C 20.285156 -16.128906 20.285156 -17.019531 20.285156 -18.109375 C 24.886719 -18.109375 26.371094 -18.011719 28.894531 -18.109375 C 36.167969 -18.457031 38.445312 -24.195312 35.476562 -30.777344 C 31.269531 -32.113281 23.105469 -31.566406 20.238281 -31.566406 C 20.238281 -32.558594 20.238281 -33.347656 20.238281 -34.140625 C 26.621094 -34.140625 27.757812 -34.140625 30.429688 -34.140625 C 42.355469 -34.140625 41.070312 -46.414062 39.238281 -49.035156 C 30.429688 -49.726562 11.777344 -49.925781 3.511719 -49.085938 C 2.523438 -40.722656 2.324219 -18.207031 2.722656 -11.429688 Z M 2.722656 -11.429688 "/></g></g></g><g fill="#000000" fill-opacity="1"><g transform="translate(261.347994, 683.663242)"><g><path d="M 1.1875 -14.792969 C -0.941406 -3.5625 4.652344 4.207031 16.824219 -0.246094 C 17.515625 -2.820312 18.308594 -5.292969 19.148438 -7.371094 C 22.316406 -7.273438 25.777344 -7.472656 28.894531 -7.324219 C 32.804688 6.234375 47.898438 0.0976562 48.589844 -5.292969 C 46.710938 -15.683594 41.414062 -33.25 38.742188 -39.78125 C 33.101562 -53.539062 18.355469 -50.421875 11.578125 -48.195312 C 8.410156 -42.007812 3.117188 -24.738281 1.1875 -14.792969 Z M 20.929688 -21.671875 C 21.871094 -25.730469 22.808594 -29.589844 23.699219 -33.496094 C 23.847656 -33.496094 23.996094 -33.496094 24.144531 -33.546875 C 25.085938 -29.589844 26.074219 -25.679688 27.015625 -21.671875 C 24.988281 -21.671875 23.058594 -21.671875 20.929688 -21.671875 Z M 20.929688 -21.671875 "/></g></g></g><g fill="#000000" fill-opacity="1"><g transform="translate(310.478221, 683.663242)"><g><path d="M 38.644531 -18.40625 C 39.039062 -18.605469 39.386719 -18.800781 39.683594 -19.050781 C 50.914062 -27.3125 46.164062 -41.414062 38.296875 -46.710938 C 28.351562 -53.339844 7.519531 -50.320312 3.214844 -46.117188 C 1.582031 -40.128906 2.175781 -14.746094 3.019531 -10.339844 C 5.144531 0.839844 16.03125 2.425781 20.136719 -2.078125 C 20.484375 -4.503906 20.78125 -8.164062 20.980469 -12.222656 C 21.027344 -13.261719 21.078125 -14.300781 21.078125 -15.191406 C 21.175781 -15.191406 21.324219 -15.238281 21.425781 -15.289062 C 21.671875 -14.941406 21.96875 -14.546875 22.214844 -14.152344 C 25.234375 -9.402344 26.667969 -7.222656 27.90625 -5.246094 C 33.746094 4.253906 45.472656 2.917969 47.054688 -5.691406 C 45.96875 -8.660156 40.96875 -16.230469 38.644531 -18.40625 Z M 28.351562 -31.074219 C 28.351562 -29.6875 27.660156 -28.746094 26.125 -28.5 C 24.9375 -28.253906 23.699219 -28.300781 22.464844 -28.300781 C 22.265625 -28.300781 21.871094 -28.699219 21.871094 -28.894531 C 21.820312 -30.628906 21.871094 -31.417969 21.871094 -33.496094 C 25.628906 -35.230469 28.351562 -33.449219 28.351562 -31.074219 Z M 28.351562 -31.074219 "/></g></g></g><g fill="#000000" fill-opacity="1"><g transform="translate(359.806352, 683.663242)"><g/></g></g><g fill="#000000" fill-opacity="1"><g transform="translate(384.742523, 683.663242)"><g><path d="M 0.742188 -14.941406 C -1.386719 -3.710938 4.503906 4.058594 16.675781 -0.394531 C 17.367188 -2.96875 18.160156 -5.441406 19 -7.519531 C 22.167969 -7.421875 25.628906 -7.621094 28.746094 -7.472656 C 32.65625 6.085938 47.75 -0.0507812 48.441406 -5.441406 C 46.5625 -15.832031 41.414062 -33.25 38.742188 -39.78125 C 33.101562 -53.539062 18.355469 -50.421875 11.578125 -48.195312 C 8.410156 -42.007812 2.671875 -24.886719 0.742188 -14.941406 Z M 20.929688 -21.671875 C 21.871094 -25.730469 22.808594 -29.589844 23.699219 -33.496094 C 23.847656 -33.496094 23.996094 -33.496094 24.144531 -33.546875 C 25.085938 -29.589844 26.074219 -25.679688 27.015625 -21.671875 C 24.988281 -21.671875 23.058594 -21.671875 20.929688 -21.671875 Z M 20.929688 -21.671875 "/></g></g></g><g fill="#000000" fill-opacity="1"><g transform="translate(433.872739, 683.663242)"><g/></g></g><g fill="#000000" fill-opacity="1"><g transform="translate(458.80891, 683.663242)"><g><path d="M 31.617188 -23.800781 C 31.566406 -23.800781 31.46875 -23.800781 31.371094 -23.800781 C 31.269531 -24.097656 30.480469 -27.757812 30.378906 -28.054688 C 29.292969 -32.65625 28.003906 -38.347656 27.066406 -41.761719 C 24.246094 -52.054688 11.726562 -51.164062 7.964844 -47.601562 C 7.027344 -42.15625 5.988281 -36.714844 5.097656 -31.222656 C 4.15625 -25.382812 2.671875 -19.246094 1.878906 -13.410156 C -0.148438 0.691406 9.550781 2.917969 17.613281 -1.433594 C 18.109375 -9.152344 18.503906 -15.089844 19.050781 -22.660156 C 19.644531 -20.980469 21.820312 -11.183594 23.007812 -6.433594 C 25.035156 1.683594 35.425781 0.199219 38.691406 -1.832031 C 40.128906 -7.570312 41.464844 -13.359375 42.800781 -19.097656 C 43.046875 -20.136719 43.246094 -21.128906 43.445312 -22.167969 C 43.542969 -22.167969 43.691406 -22.167969 43.789062 -22.117188 C 44.085938 -14.546875 43.742188 -12.46875 44.382812 -6.582031 C 45.273438 1.285156 55.8125 3.363281 61.207031 -3.613281 C 60.5625 -9.203125 59.96875 -14.050781 59.328125 -19.644531 C 58.632812 -25.480469 57.496094 -35.179688 57 -38.941406 C 55.714844 -48.6875 45.421875 -52.449219 37.457031 -47.304688 C 37.160156 -46.3125 36.761719 -45.375 36.515625 -44.433594 C 34.980469 -37.851562 33.449219 -31.320312 31.914062 -24.738281 C 31.863281 -24.441406 31.714844 -24.144531 31.617188 -23.800781 Z M 31.617188 -23.800781 "/></g></g></g><g fill="#000000" fill-opacity="1"><g transform="translate(521.792565, 683.663242)"><g><path d="M 1.1875 -14.792969 C -0.941406 -3.5625 4.652344 4.207031 16.824219 -0.246094 C 17.515625 -2.820312 18.308594 -5.292969 19.148438 -7.371094 C 22.316406 -7.273438 25.777344 -7.472656 28.894531 -7.324219 C 32.804688 6.234375 47.898438 0.0976562 48.589844 -5.292969 C 46.710938 -15.683594 41.414062 -33.25 38.742188 -39.78125 C 33.101562 -53.539062 18.355469 -50.421875 11.578125 -48.195312 C 8.410156 -42.007812 3.117188 -24.738281 1.1875 -14.792969 Z M 20.929688 -21.671875 C 21.871094 -25.730469 22.808594 -29.589844 23.699219 -33.496094 C 23.847656 -33.496094 23.996094 -33.496094 24.144531 -33.546875 C 25.085938 -29.589844 26.074219 -25.679688 27.015625 -21.671875 C 24.988281 -21.671875 23.058594 -21.671875 20.929688 -21.671875 Z M 20.929688 -21.671875 "/></g></g></g><g fill="#000000" fill-opacity="1"><g transform="translate(570.922781, 683.663242)"><g><path d="M 36.121094 -27.855469 C 34.339844 -28.945312 30.527344 -30.082031 23.304688 -31.023438 C 20.78125 -31.371094 20.039062 -32.011719 20.039062 -33.101562 C 20.136719 -37.457031 31.371094 -36.910156 34.980469 -32.457031 C 40.671875 -33.792969 45.226562 -42.207031 36.566406 -47.945312 C 32.308594 -50.765625 23.253906 -51.609375 16.722656 -49.828125 C 4.847656 -46.660156 3.167969 -36.910156 3.808594 -32.753906 C 5.34375 -23.453125 14.003906 -18.902344 22.019531 -18.308594 C 25.730469 -18.058594 25.777344 -17.464844 25.234375 -15.488281 C 24.441406 -12.46875 19.445312 -12.964844 12.46875 -16.425781 C 4.402344 -20.433594 -1.136719 -10.292969 3.660156 -4.253906 C 12.566406 3.066406 27.90625 1.832031 34.4375 -0.792969 C 43.742188 -4.601562 48.6875 -20.089844 36.121094 -27.855469 Z M 36.121094 -27.855469 "/></g></g></g><g fill="#000000" fill-opacity="1"><g transform="translate(617.529712, 683.663242)"><g><path d="M 20.582031 -31.371094 C 20.582031 -31.964844 20.535156 -32.261719 20.582031 -32.507812 C 20.730469 -36.761719 20.832031 -36.121094 20.582031 -41.960938 C 20.238281 -51.609375 6.582031 -51.507812 2.621094 -46.5625 C 1.683594 -37.257812 2.128906 -15.386719 3.265625 -7.175781 C 4.453125 1.632812 16.574219 1.78125 20.832031 -1.832031 C 20.582031 -4.601562 20.535156 -7.519531 20.730469 -8.558594 C 20.929688 -9.597656 22.316406 -11.875 23.453125 -13.65625 C 25.777344 -9.105469 27.066406 -6.679688 28.105469 -4.601562 C 33.347656 5.640625 45.175781 0.445312 47.054688 -5.9375 C 45.175781 -10.886719 40.523438 -18.109375 36.910156 -24.839844 C 36.566406 -25.480469 36.566406 -25.925781 36.960938 -26.519531 C 40.128906 -31.566406 40.671875 -31.964844 43.246094 -37.308594 C 47.351562 -45.769531 39.980469 -51.3125 32.953125 -49.875 C 31.121094 -47.105469 27.015625 -41.316406 25.183594 -38.496094 C 23.652344 -36.269531 22.214844 -33.941406 20.582031 -31.371094 Z M 20.582031 -31.371094 "/></g></g></g><g clip-path="url(#id62)"><path fill="#231f1f" d="M 207.804688 229.5 C 168.042969 229.5 135.804688 261.734375 135.804688 301.5 C 135.804688 341.265625 168.042969 373.5 207.804688 373.5 C 247.570312 373.5 279.804688 341.265625 279.804688 301.5 C 279.804688 261.734375 247.570312 229.5 207.804688 229.5 " fill-opacity="1" fill-rule="nonzero"/></g><path fill="#f8f8f8" d="M 250.777344 273.257812 C 250.4375 272.917969 250.066406 272.617188 249.667969 272.347656 C 249.269531 272.082031 248.851562 271.855469 248.410156 271.671875 C 247.964844 271.488281 247.507812 271.347656 247.039062 271.253906 C 246.570312 271.160156 246.09375 271.113281 245.617188 271.113281 C 245.136719 271.113281 244.664062 271.160156 244.195312 271.253906 C 243.722656 271.347656 243.265625 271.488281 242.824219 271.671875 C 242.382812 271.855469 241.960938 272.082031 241.5625 272.347656 C 241.164062 272.617188 240.796875 272.917969 240.457031 273.257812 L 203.011719 310.859375 C 202.675781 311.199219 202.308594 311.503906 201.910156 311.769531 C 201.511719 312.039062 201.089844 312.261719 200.648438 312.445312 C 200.207031 312.628906 199.75 312.769531 199.28125 312.863281 C 198.8125 312.957031 198.335938 313.003906 197.859375 313.003906 C 197.378906 313.003906 196.90625 312.957031 196.433594 312.863281 C 195.964844 312.769531 195.507812 312.628906 195.066406 312.445312 C 194.625 312.261719 194.203125 312.039062 193.808594 311.769531 C 193.410156 311.503906 193.039062 311.199219 192.703125 310.859375 L 179.636719 297.679688 C 179.300781 297.339844 178.929688 297.039062 178.53125 296.769531 C 178.132812 296.503906 177.714844 296.277344 177.269531 296.09375 C 176.828125 295.910156 176.371094 295.769531 175.902344 295.675781 C 175.433594 295.582031 174.957031 295.535156 174.480469 295.535156 C 174 295.535156 173.527344 295.582031 173.054688 295.675781 C 172.585938 295.769531 172.128906 295.910156 171.6875 296.09375 C 171.246094 296.277344 170.824219 296.503906 170.425781 296.769531 C 170.027344 297.039062 169.660156 297.339844 169.320312 297.679688 C 168.980469 298.023438 168.679688 298.390625 168.414062 298.792969 C 168.148438 299.191406 167.921875 299.613281 167.738281 300.058594 C 167.554688 300.5 167.417969 300.960938 167.324219 301.429688 C 167.230469 301.902344 167.183594 302.378906 167.183594 302.859375 C 167.183594 303.339844 167.230469 303.816406 167.324219 304.289062 C 167.417969 304.757812 167.554688 305.21875 167.738281 305.660156 C 167.921875 306.105469 168.148438 306.527344 168.414062 306.925781 C 168.679688 307.328125 168.980469 307.695312 169.320312 308.035156 L 187.558594 326.382812 L 188.796875 327.625 C 189.394531 328.222656 190.042969 328.757812 190.742188 329.226562 C 191.441406 329.695312 192.183594 330.09375 192.960938 330.417969 C 193.738281 330.742188 194.542969 330.984375 195.367188 331.152344 C 196.195312 331.316406 197.03125 331.398438 197.871094 331.398438 C 198.714844 331.398438 199.550781 331.316406 200.375 331.152344 C 201.203125 330.984375 202.003906 330.742188 202.785156 330.417969 C 203.5625 330.09375 204.300781 329.695312 205.003906 329.226562 C 205.703125 328.757812 206.351562 328.222656 206.949219 327.625 L 208.167969 326.382812 L 250.777344 283.648438 C 251.117188 283.308594 251.421875 282.9375 251.6875 282.539062 C 251.957031 282.136719 252.183594 281.714844 252.367188 281.269531 C 252.550781 280.820312 252.691406 280.363281 252.785156 279.890625 C 252.878906 279.414062 252.925781 278.9375 252.925781 278.453125 C 252.925781 277.972656 252.878906 277.492188 252.785156 277.019531 C 252.691406 276.546875 252.550781 276.085938 252.367188 275.640625 C 252.183594 275.195312 251.957031 274.773438 251.6875 274.371094 C 251.421875 273.96875 251.117188 273.597656 250.777344 273.257812 Z M 250.777344 273.257812 " fill-opacity="1" fill-rule="nonzero"/></svg>